{
    "asset" : {
        "generator" : "Khronos glTF Blender I/O v1.4.40",
        "version" : "2.0"
    },
    "scene" : 0,
    "scenes" : [
        {
            "name" : "Scene",
            "nodes" : [
                0
            ]
        }
    ],
    "nodes" : [
        {
            "mesh" : 0,
            "name" : "AK27.000",
            "scale" : [
                0.014060582965612411,
                0.03791031613945961,
                0.03791031613945961
            ],
            "translation" : [
                -0.31999996304512024,
                -0.1800081878900528,
                0.29834431409835815
            ]
        }
    ],
    "materials" : [
        {
            "doubleSided" : true,
            "name" : "Material.087",
            "pbrMetallicRoughness" : {}
        },
        {
            "doubleSided" : true,
            "name" : "Material.134",
            "pbrMetallicRoughness" : {}
        },
        {
            "doubleSided" : true,
            "name" : "Material.140",
            "pbrMetallicRoughness" : {}
        },
        {
            "doubleSided" : true,
            "name" : "Material.142",
            "pbrMetallicRoughness" : {}
        },
        {
            "doubleSided" : true,
            "name" : "Material.143",
            "pbrMetallicRoughness" : {}
        },
        {
            "doubleSided" : true,
            "name" : "Material.144",
            "pbrMetallicRoughness" : {}
        }
    ],
    "meshes" : [
        {
            "name" : "Cube.000",
            "primitives" : [
                {
                    "attributes" : {
                        "POSITION" : 0,
                        "NORMAL" : 1
                    },
                    "indices" : 2,
                    "material" : 0
                },
                {
                    "attributes" : {
                        "POSITION" : 3,
                        "NORMAL" : 4
                    },
                    "indices" : 5,
                    "material" : 1
                },
                {
                    "attributes" : {
                        "POSITION" : 6,
                        "NORMAL" : 7
                    },
                    "indices" : 8,
                    "material" : 2
                },
                {
                    "attributes" : {
                        "POSITION" : 9,
                        "NORMAL" : 10
                    },
                    "indices" : 11,
                    "material" : 3
                },
                {
                    "attributes" : {
                        "POSITION" : 12,
                        "NORMAL" : 13
                    },
                    "indices" : 14,
                    "material" : 4
                },
                {
                    "attributes" : {
                        "POSITION" : 15,
                        "NORMAL" : 16
                    },
                    "indices" : 17,
                    "material" : 5
                }
            ]
        }
    ],
    "accessors" : [
        {
            "bufferView" : 0,
            "componentType" : 5126,
            "count" : 16,
            "max" : [
                31.28836441040039,
                6.52708625793457,
                -7.567940711975098
            ],
            "min" : [
                14.268455505371094,
                6.366367340087891,
                -9.004698753356934
            ],
            "type" : "VEC3"
        },
        {
            "bufferView" : 1,
            "componentType" : 5126,
            "count" : 16,
            "type" : "VEC3"
        },
        {
            "bufferView" : 2,
            "componentType" : 5123,
            "count" : 24,
            "type" : "SCALAR"
        },
        {
            "bufferView" : 3,
            "componentType" : 5126,
            "count" : 128,
            "max" : [
                32.18324661254883,
                21.826566696166992,
                -4.1030426025390625
            ],
            "min" : [
                13.373575210571289,
                6.366367340087891,
                -9.394919395446777
            ],
            "type" : "VEC3"
        },
        {
            "bufferView" : 4,
            "componentType" : 5126,
            "count" : 128,
            "type" : "VEC3"
        },
        {
            "bufferView" : 5,
            "componentType" : 5123,
            "count" : 192,
            "type" : "SCALAR"
        },
        {
            "bufferView" : 6,
            "componentType" : 5126,
            "count" : 914,
            "max" : [
                38.58176803588867,
                25.62991714477539,
                -3.5873923301696777
            ],
            "min" : [
                6.975055694580078,
                8.574483871459961,
                -11.373952865600586
            ],
            "type" : "VEC3"
        },
        {
            "bufferView" : 7,
            "componentType" : 5126,
            "count" : 914,
            "type" : "VEC3"
        },
        {
            "bufferView" : 8,
            "componentType" : 5123,
            "count" : 1380,
            "type" : "SCALAR"
        },
        {
            "bufferView" : 9,
            "componentType" : 5126,
            "count" : 1301,
            "max" : [
                39.9743537902832,
                25.71621322631836,
                -3.603689670562744
            ],
            "min" : [
                5.582466125488281,
                6.439303398132324,
                -11.195877075195312
            ],
            "type" : "VEC3"
        },
        {
            "bufferView" : 10,
            "componentType" : 5126,
            "count" : 1301,
            "type" : "VEC3"
        },
        {
            "bufferView" : 11,
            "componentType" : 5123,
            "count" : 1968,
            "type" : "SCALAR"
        },
        {
            "bufferView" : 12,
            "componentType" : 5126,
            "count" : 466,
            "max" : [
                32.32421112060547,
                7.7636566162109375,
                -5.647067070007324
            ],
            "min" : [
                13.232608795166016,
                4.742269515991211,
                -9.140909194946289
            ],
            "type" : "VEC3"
        },
        {
            "bufferView" : 13,
            "componentType" : 5126,
            "count" : 466,
            "type" : "VEC3"
        },
        {
            "bufferView" : 14,
            "componentType" : 5123,
            "count" : 744,
            "type" : "SCALAR"
        },
        {
            "bufferView" : 15,
            "componentType" : 5126,
            "count" : 371,
            "max" : [
                33.66426467895508,
                18.459157943725586,
                -4.979239463806152
            ],
            "min" : [
                12.374800682067871,
                10.82748031616211,
                -11.363176345825195
            ],
            "type" : "VEC3"
        },
        {
            "bufferView" : 16,
            "componentType" : 5126,
            "count" : 371,
            "type" : "VEC3"
        },
        {
            "bufferView" : 17,
            "componentType" : 5123,
            "count" : 567,
            "type" : "SCALAR"
        }
    ],
    "bufferViews" : [
        {
            "buffer" : 0,
            "byteLength" : 192,
            "byteOffset" : 0
        },
        {
            "buffer" : 0,
            "byteLength" : 192,
            "byteOffset" : 192
        },
        {
            "buffer" : 0,
            "byteLength" : 48,
            "byteOffset" : 384
        },
        {
            "buffer" : 0,
            "byteLength" : 1536,
            "byteOffset" : 432
        },
        {
            "buffer" : 0,
            "byteLength" : 1536,
            "byteOffset" : 1968
        },
        {
            "buffer" : 0,
            "byteLength" : 384,
            "byteOffset" : 3504
        },
        {
            "buffer" : 0,
            "byteLength" : 10968,
            "byteOffset" : 3888
        },
        {
            "buffer" : 0,
            "byteLength" : 10968,
            "byteOffset" : 14856
        },
        {
            "buffer" : 0,
            "byteLength" : 2760,
            "byteOffset" : 25824
        },
        {
            "buffer" : 0,
            "byteLength" : 15612,
            "byteOffset" : 28584
        },
        {
            "buffer" : 0,
            "byteLength" : 15612,
            "byteOffset" : 44196
        },
        {
            "buffer" : 0,
            "byteLength" : 3936,
            "byteOffset" : 59808
        },
        {
            "buffer" : 0,
            "byteLength" : 5592,
            "byteOffset" : 63744
        },
        {
            "buffer" : 0,
            "byteLength" : 5592,
            "byteOffset" : 69336
        },
        {
            "buffer" : 0,
            "byteLength" : 1488,
            "byteOffset" : 74928
        },
        {
            "buffer" : 0,
            "byteLength" : 4452,
            "byteOffset" : 76416
        },
        {
            "buffer" : 0,
            "byteLength" : 4452,
            "byteOffset" : 80868
        },
        {
            "buffer" : 0,
            "byteLength" : 1134,
            "byteOffset" : 85320
        }
    ],
    "buffers" : [
        {
            "byteLength" : 86456,
            "uri" : "data:application/octet-stream;base64,"
        }
    ]
}
