{
    "asset" : {
        "generator" : "Khronos glTF Blender I/O v1.4.40",
        "version" : "2.0"
    },
    "scene" : 0,
    "scenes" : [
        {
            "name" : "Scene",
            "nodes" : [
                0,
                1,
                2
            ]
        }
    ],
    "nodes" : [
        {
            "mesh" : 0,
            "name" : "Cilindro",
            "translation" : [
                0,
                1.7847191095352173,
                0
            ]
        },
        {
            "name" : "Lamp",
            "rotation" : [
                0.16907575726509094,
                0.7558803558349609,
                -0.27217137813568115,
                0.570947527885437
            ],
            "translation" : [
                4.076245307922363,
                5.903861999511719,
                -1.0054539442062378
            ]
        },
        {
            "name" : "Camera",
            "rotation" : [
                0.6651133298873901,
                -0.12094283103942871,
                0.1104089617729187,
                0.728564977645874
            ],
            "translation" : [
                -2.81760835647583,
                1.7510762214660645,
                8.60715103149414
            ]
        }
    ],
    "materials" : [
        {
            "doubleSided" : true,
            "name" : "Blanco Plastico",
            "pbrMetallicRoughness" : {}
        },
        {
            "doubleSided" : true,
            "name" : "Negro PLastico",
            "pbrMetallicRoughness" : {}
        }
    ],
    "meshes" : [
        {
            "name" : "Cilindro",
            "primitives" : [
                {
                    "attributes" : {
                        "POSITION" : 0,
                        "NORMAL" : 1,
                        "TEXCOORD_0" : 2
                    },
                    "indices" : 3,
                    "material" : 0
                },
                {
                    "attributes" : {
                        "POSITION" : 4,
                        "NORMAL" : 5,
                        "TEXCOORD_0" : 6
                    },
                    "indices" : 7,
                    "material" : 1
                }
            ]
        }
    ],
    "accessors" : [
        {
            "bufferView" : 0,
            "componentType" : 5126,
            "count" : 17967,
            "max" : [
                1.4669547080993652,
                1.2691932916641235,
                1.0120809078216553
            ],
            "min" : [
                -1.4684009552001953,
                -2.8605997562408447,
                -1.014552354812622
            ],
            "type" : "VEC3"
        },
        {
            "bufferView" : 1,
            "componentType" : 5126,
            "count" : 17967,
            "type" : "VEC3"
        },
        {
            "bufferView" : 2,
            "componentType" : 5126,
            "count" : 17967,
            "type" : "VEC2"
        },
        {
            "bufferView" : 3,
            "componentType" : 5123,
            "count" : 31770,
            "type" : "SCALAR"
        },
        {
            "bufferView" : 4,
            "componentType" : 5126,
            "count" : 6984,
            "max" : [
                1.450807809829712,
                0.21566297113895416,
                0.4347549378871918
            ],
            "min" : [
                -1.4421985149383545,
                -2.7614524364471436,
                -0.43961817026138306
            ],
            "type" : "VEC3"
        },
        {
            "bufferView" : 5,
            "componentType" : 5126,
            "count" : 6984,
            "type" : "VEC3"
        },
        {
            "bufferView" : 6,
            "componentType" : 5126,
            "count" : 6984,
            "type" : "VEC2"
        },
        {
            "bufferView" : 7,
            "componentType" : 5123,
            "count" : 11808,
            "type" : "SCALAR"
        }
    ],
    "bufferViews" : [
        {
            "buffer" : 0,
            "byteLength" : 215604,
            "byteOffset" : 0
        },
        {
            "buffer" : 0,
            "byteLength" : 215604,
            "byteOffset" : 215604
        },
        {
            "buffer" : 0,
            "byteLength" : 143736,
            "byteOffset" : 431208
        },
        {
            "buffer" : 0,
            "byteLength" : 63540,
            "byteOffset" : 574944
        },
        {
            "buffer" : 0,
            "byteLength" : 83808,
            "byteOffset" : 638484
        },
        {
            "buffer" : 0,
            "byteLength" : 83808,
            "byteOffset" : 722292
        },
        {
            "buffer" : 0,
            "byteLength" : 55872,
            "byteOffset" : 806100
        },
        {
            "buffer" : 0,
            "byteLength" : 23616,
            "byteOffset" : 861972
        }
    ],
    "buffers" : [
        {
            "byteLength" : 885588,
            "uri" : "data:application/octet-stream;base64,"
        }
    ]
}
